<svg width="24" height="24" viewBox="0 0 24 24" fill="none" xmlns="http://www.w3.org/2000/svg">
<path d="M12 24C18.6274 24 24 18.6274 24 12C24 5.37258 18.6274 0 12 0C5.37258 0 0 5.37258 0 12C0 18.6274 5.37258 24 12 24Z" fill="#F7931A"/>
<path d="M16.7751 10.8243C16.9751 9.56349 15.9578 8.88556 14.568 8.4332L15.0189 6.72485L13.9183 6.46619L13.4788 8.12943C13.1896 8.06086 12.8928 7.99709 12.5966 7.93333L13.0393 6.25926L11.9386 6L11.4876 7.70775C11.2481 7.65602 11.0124 7.60549 10.7844 7.55136L10.7857 7.54594L9.26715 7.18803L8.97414 8.29846C8.97414 8.29846 9.79137 8.47531 9.77417 8.48614C10.22 8.59141 10.3003 8.86992 10.2869 9.09128L9.77354 11.0372C9.80411 11.0445 9.8436 11.0553 9.88819 11.0715L9.77162 11.0445L9.05185 13.7706C8.99707 13.8981 8.85885 14.09 8.54674 14.0172C8.55821 14.0323 7.74671 13.829 7.74671 13.829L7.2002 15.0188L8.63337 15.3563C8.89962 15.4194 9.16077 15.4856 9.41747 15.5475L8.96204 17.2752L10.0621 17.5338L10.5131 15.8255C10.8137 15.9019 11.1054 15.9728 11.3908 16.0402L10.9411 17.7413L12.0418 18L12.4972 16.276C14.375 16.6117 15.7865 16.4763 16.3808 14.8726C16.8598 13.5817 16.3572 12.8364 15.3693 12.351C16.089 12.1946 16.6305 11.7477 16.7751 10.8243ZM14.259 14.1556C13.9195 15.4471 11.6169 14.7487 10.8704 14.5737L11.4755 12.2848C12.222 12.4611 14.6151 12.8094 14.259 14.1556ZM14.5998 10.8057C14.2896 11.9805 12.3736 11.3831 11.7526 11.237L12.3004 9.16166C12.9214 9.30783 14.9234 9.58033 14.5998 10.8057Z" fill="white"/>
</svg>
