<svg width="32" height="32" viewBox="0 0 32 32" fill="none" xmlns="http://www.w3.org/2000/svg">
<g id="Token">
<path id="Network Icon Background" d="M16 32C24.8366 32 32 24.8366 32 16C32 7.16344 24.8366 0 16 0C7.16344 0 0 7.16344 0 16C0 24.8366 7.16344 32 16 32Z" fill="#F7931A"/>
<path id="Vector" d="M23.3198 14.1189C23.6398 12.1016 22.0122 11.0169 19.7884 10.2932L20.51 7.55978L18.7489 7.14593L18.0457 9.80711C17.583 9.69739 17.1081 9.59537 16.6342 9.49335L17.3425 6.81484L15.5814 6.40002L14.8599 9.13243C14.4767 9.04966 14.0996 8.96882 13.7347 8.88219L13.7368 8.87353L11.3071 8.30087L10.8383 10.0776C10.8383 10.0776 12.1459 10.3605 12.1184 10.3778C12.8318 10.5463 12.9602 10.9919 12.9388 11.3461L12.1173 14.4596C12.1663 14.4712 12.2295 14.4885 12.3008 14.5145L12.1143 14.4712L10.9627 18.833C10.875 19.037 10.6539 19.3441 10.1545 19.2276C10.1728 19.2517 8.87443 18.9264 8.87443 18.9264L8 20.8301L10.2931 21.37C10.7191 21.4711 11.1369 21.577 11.5476 21.6761L10.819 24.4403L12.579 24.8541L13.3006 22.1208C13.7816 22.243 14.2484 22.3566 14.705 22.4643L13.9854 25.1862L15.7465 25.6L16.4752 22.8416C19.4796 23.3787 21.7381 23.1621 22.6889 20.5962C23.4553 18.5308 22.6512 17.3383 21.0705 16.5616C22.2222 16.3114 23.0884 15.5963 23.3198 14.1189ZM19.2942 19.449C18.751 21.5154 15.0667 20.398 13.8723 20.1179L14.8405 16.4557C16.0349 16.7377 19.8639 17.295 19.2942 19.449ZM19.8394 14.0891C19.3431 15.9687 16.2775 15.013 15.2838 14.7792L16.1603 11.4587C17.154 11.6926 20.3571 12.1286 19.8394 14.0891Z" fill="white"/>
</g>
</svg>
