<svg width="40" height="40" viewBox="0 0 40 40" fill="none" xmlns="http://www.w3.org/2000/svg">
<path d="M20 40C31.0457 40 40 31.0457 40 20C40 8.9543 31.0457 0 20 0C8.9543 0 0 8.9543 0 20C0 31.0457 8.9543 40 20 40Z" fill="#AE219E"/>
<path d="M29.1497 17.6486C29.5497 15.127 27.5153 13.7711 24.7356 12.8664L25.6375 9.4497L23.4361 8.93238L22.5571 12.2589C21.9788 12.1217 21.3851 11.9942 20.7927 11.8667L21.6781 8.51852L19.4768 8L18.5748 11.4155C18.0958 11.312 17.6245 11.211 17.1684 11.1027L17.171 11.0919L14.1339 10.3761L13.5479 12.5969C13.5479 12.5969 15.1824 12.9506 15.148 12.9723C16.0397 13.1828 16.2002 13.7398 16.1735 14.1826L15.1467 18.0745C15.2078 18.0889 15.2868 18.1106 15.376 18.1431L15.1429 18.0889L13.7033 23.5412C13.5938 23.7963 13.3173 24.1801 12.6931 24.0345C12.716 24.0646 11.093 23.6579 11.093 23.6579L10 26.0376L12.8663 26.7125C13.3988 26.8388 13.9212 26.9712 14.4346 27.0951L13.5237 30.5503L15.7238 31.0676L16.6257 27.6509C17.227 27.8037 17.8105 27.9457 18.3812 28.0804L17.4818 31.4827L19.6831 32L20.594 28.552C24.3496 29.2233 27.1726 28.9526 28.3612 25.7453C29.3192 23.1635 28.314 21.6729 26.3382 20.702C27.7777 20.3892 28.8605 19.4953 29.1497 17.6486V17.6486ZM24.1177 24.3112C23.4387 26.8942 18.8334 25.4974 17.3404 25.1473L18.5506 20.5697C20.0437 20.9222 24.8298 21.6187 24.1177 24.3112ZM24.7993 17.6113C24.1788 19.9609 20.3469 18.7663 19.1048 18.4739L20.2004 14.3233C21.4424 14.6157 25.4464 15.1607 24.7993 17.6113Z" fill="white"/>
</svg>
