<svg width="25" height="24" viewBox="0 0 25 24" fill="none" xmlns="http://www.w3.org/2000/svg">
<g id="Frame 1871880635">
<g id="Group 2085661462">
<path id="Vector" fill-rule="evenodd" clip-rule="evenodd" d="M3.47803 9.22469C4.65293 5.52811 8.1128 2.84992 12.1981 2.84992C17.2506 2.84992 21.3463 6.94645 21.3463 11.9997C21.3463 16.6939 17.8118 20.5625 13.2593 21.0884V18.207C15.2549 17.8689 16.9312 16.5926 17.8183 14.8479H15.2836C14.5164 15.6777 13.4184 16.1972 12.199 16.1972C9.87974 16.1972 7.99954 14.3179 7.99954 11.9996C7.99954 9.68143 9.87974 7.80222 12.199 7.80222C13.4547 7.80222 14.5818 8.35309 15.3514 9.22638H17.8557C16.8297 7.13962 14.6822 5.70344 12.199 5.70344C8.72007 5.70344 5.89985 8.52237 5.89985 11.9996C5.89985 15.1199 8.17066 17.71 11.1506 18.209V21.0899C7.55689 20.6803 4.5953 18.188 3.50214 14.8495H1.31421C2.57589 19.6825 6.97058 23.2492 12.1982 23.2492C18.4102 23.2492 23.4461 18.2127 23.4461 11.9997C23.446 5.78663 18.4101 0.75 12.1981 0.75C6.94349 0.75 2.53043 4.35367 1.29492 9.22469H3.47803Z" fill="white"/>
<path id="Vector_2" d="M14.502 11.9949C14.502 13.2693 13.4688 14.3025 12.1943 14.3025C10.9199 14.3025 9.88672 13.2693 9.88672 11.9949C9.88672 10.7204 10.9199 9.68726 12.1943 9.68726C13.4688 9.68726 14.502 10.7204 14.502 11.9949Z" fill="#FF7C2B"/>
</g>
</g>
</svg>
