<svg xmlns="http://www.w3.org/2000/svg" width="26" height="26" viewBox="0 0 26 26" fill="none">
  <circle cx="13" cy="13" r="13" fill="#F3F3F3"/>
  <path fill-rule="evenodd" clip-rule="evenodd" d="M13.6754 10.5541C13.0386 9.91731 13.0386 8.88487 13.6754 8.24808L15.4459 6.47759C16.0827 5.8408 17.1151 5.8408 17.7519 6.47759L19.5224 8.24808C20.1592 8.88487 20.1592 9.91731 19.5224 10.5541L17.7519 12.3246C17.1151 12.9614 16.0827 12.9614 15.4459 12.3246L13.6754 10.5541ZM7.6306 6.13988C6.73005 6.13988 6 6.86993 6 7.77049V11.0317C6 11.9322 6.73005 12.6623 7.6306 12.6623H10.8918C11.7924 12.6623 12.5224 11.9322 12.5224 11.0317V7.77048C12.5224 6.86993 11.7924 6.13988 10.8918 6.13988H7.6306ZM7.6306 13.4776C6.73005 13.4776 6 14.2076 6 15.1082V18.3694C6 19.27 6.73005 20 7.6306 20H10.8918C11.7924 20 12.5224 19.27 12.5224 18.3694V15.1082C12.5224 14.2076 11.7924 13.4776 10.8918 13.4776H7.6306ZM14.9683 13.4776C14.0678 13.4776 13.3377 14.2076 13.3377 15.1082V18.3694C13.3377 19.27 14.0678 20 14.9683 20H18.2295C19.1301 20 19.8601 19.27 19.8601 18.3694V15.1082C19.8601 14.2076 19.1301 13.4776 18.2295 13.4776H14.9683Z" fill="#121212"/>
</svg>
