<svg width="24" height="24" viewBox="0 0 24 24" fill="none" xmlns="http://www.w3.org/2000/svg">
<mask id="mask0_544_4806" style="mask-type:alpha" maskUnits="userSpaceOnUse" x="2" y="2" width="21" height="21">
<ellipse cx="12.2062" cy="12.0004" rx="10.0002" ry="10" fill="#D9D9D9"/>
</mask>
<g mask="url(#mask0_544_4806)">
<rect x="1.29694" y="1.09134" width="21.8185" height="21.8182" fill="#6331C9"/>
</g>
<path fill-rule="evenodd" clip-rule="evenodd" d="M9.63322 10.8132C9.63322 10.261 10.0809 9.81325 10.6332 9.81325H12C12.5523 9.81325 13 10.261 13 10.8132V15.47H14.2059C14.7582 15.47 15.2059 15.9177 15.2059 16.47C15.2059 17.0223 14.7582 17.47 14.2059 17.47H9.79413C9.24184 17.47 8.79413 17.0223 8.79413 16.47C8.79413 15.9177 9.24184 15.47 9.79413 15.47H11V11.8132H10.6332C10.0809 11.8132 9.63322 11.3655 9.63322 10.8132Z" fill="white"/>
<path d="M13.2326 7.83848C13.2326 8.56114 12.6468 9.14697 11.9241 9.14697C11.2015 9.14697 10.6156 8.56114 10.6156 7.83848C10.6156 7.11583 11.2015 6.53 11.9241 6.53C12.6468 6.53 13.2326 7.11583 13.2326 7.83848Z" fill="white"/>
</svg>
