<svg width="40" height="40" viewBox="0 0 40 40" fill="none" xmlns="http://www.w3.org/2000/svg">
<rect x="1" y="1" width="38" height="38" rx="9.66667" fill="#F2F2F2" stroke="white" stroke-width="2"/>
<path fill-rule="evenodd" clip-rule="evenodd" d="M15.5418 23.5738C16.0224 24.0167 16.8001 23.6758 16.8001 23.0223L16.8001 13.4262C16.8001 13.012 17.1417 12.6762 17.5559 12.6762C17.9701 12.6762 18.3117 13.012 18.3117 13.4262L18.3117 26.3696C18.3117 27.0231 17.5339 27.364 17.0534 26.9211L13.0097 23.1939C12.7011 22.9094 12.701 22.4221 13.0096 22.1376C13.2846 21.884 13.7082 21.884 13.9833 22.1375L15.5418 23.5738ZM23.3062 26.5735C23.3062 26.9878 22.9704 27.3235 22.5562 27.3235L22.5368 27.3235C22.1226 27.3235 21.7868 26.9878 21.7868 26.5735L21.7868 13.6302C21.7868 12.9766 22.5646 12.6358 23.0451 13.0787L27.0931 16.8098C27.3998 17.0925 27.4007 17.5765 27.0951 17.8604C26.8212 18.1147 26.3978 18.1156 26.123 17.8623L24.5645 16.426C24.0839 15.9831 23.3062 16.324 23.3062 16.9775L23.3062 26.5735Z" fill="#989898"/>
</svg>
