<svg width="16" height="16" viewBox="0 0 16 16" fill="none" xmlns="http://www.w3.org/2000/svg">
<g id="Frame 1871880482">
<g id="Group 1707482714">
<path id="Vector" d="M0.246892 11.8006C-0.361699 9.73735 0.21845 7.58347 1.29209 5.71469C1.66849 5.0598 2.03761 4.56829 2.49935 3.97161C2.93832 3.3995 3.41407 2.85657 3.92358 2.34627C4.23582 2.03602 4.54143 1.7185 4.88013 1.43669C5.1659 1.19921 5.72819 0.67463 6.137 0.899544C6.40954 1.04905 6.46776 1.37319 6.43667 1.64507C6.40359 1.93812 6.22432 2.30658 6.52861 2.48982C6.76213 2.63205 7.13522 2.47461 7.32772 2.28475C7.79078 1.83095 10.3085 -0.473755 10.8384 0.654123C10.9118 0.811563 10.8562 0.998771 10.7795 1.15489C10.6042 1.51343 10.37 2.01485 10.7947 2.31187C11.1195 2.54142 11.486 2.33966 11.8062 2.21794C12.3684 2.00361 12.9579 1.79523 13.5605 1.74297C13.8688 1.71519 14.3212 1.71056 14.4555 2.0605C14.6335 2.52356 14.2452 2.87813 13.9594 3.18507C13.8 3.35706 13.5254 3.56676 13.4963 3.87106C13.4494 4.35793 14.1969 4.46179 14.5673 4.5286C14.7852 4.55834 15.0009 4.60254 15.2129 4.6609C15.5305 4.74756 15.9677 4.948 15.975 5.33035C15.9823 5.74446 15.5067 5.95681 15.2473 6.14335C15.2473 6.14335 13.9303 6.81545 13.8959 7.57288C13.8714 8.114 14.3384 8.44013 14.7916 8.70142C15.0694 8.86217 15.3929 8.92898 15.6674 9.09833C15.8427 9.20682 16.02 9.40924 15.9982 9.62754C15.9757 9.86238 15.7124 10.0463 15.5199 10.1422C15.3009 10.252 15.0515 10.2785 14.8187 10.3473C14.542 10.4275 14.2737 10.5343 14.0176 10.6661C13.7715 10.7944 13.4983 10.9664 13.3779 11.2284C13.235 11.54 13.2813 11.7431 13.4189 12.0493C13.5565 12.3556 13.9051 12.6295 14.0097 12.9583C14.2081 13.5834 13.5618 13.8625 13.0657 13.9717C12.2359 14.1588 11.4163 14.3884 10.6101 14.6597C9.68998 14.9646 8.78041 15.4105 7.79542 15.5461C7.05481 15.6514 6.30526 15.6796 5.55884 15.6301C4.12997 15.5289 2.67464 15.0877 1.61423 14.0861C0.964794 13.4583 0.493053 12.6697 0.246892 11.8006Z" fill="#9B9B9B"/>
<path id="Vector_2" d="M0.909686 10.158C0.991052 9.55598 1.35753 8.93217 2.01242 8.86735C3.00469 8.7701 3.63644 9.4508 4.29994 9.69688C4.94557 9.93635 5.31734 9.96149 6.00135 9.86425C7.1193 9.7035 9.02578 9.12071 9.254 10.6984C9.41078 11.7813 9.18123 12.6955 8.29811 13.4867C7.27476 14.4095 5.68714 14.6278 3.94207 14.2196C3.16942 14.0391 2.39677 13.5813 1.82523 13.0289C1.04795 12.2808 0.761508 11.2561 0.909686 10.158Z" fill="white"/>
<path id="Vector_3" d="M2.55762 11.6908C2.83054 11.6908 3.05177 11.3937 3.05177 11.0273C3.05177 10.6608 2.83054 10.3638 2.55762 10.3638C2.28471 10.3638 2.06348 10.6608 2.06348 11.0273C2.06348 11.3937 2.28471 11.6908 2.55762 11.6908Z" fill="#9B9B9B"/>
<path id="Vector_4" d="M6.03702 12.3259C6.36327 12.3259 6.62774 11.9705 6.62774 11.5321C6.62774 11.0937 6.36327 10.7383 6.03702 10.7383C5.71076 10.7383 5.44629 11.0937 5.44629 11.5321C5.44629 11.9705 5.71076 12.3259 6.03702 12.3259Z" fill="#9B9B9B"/>
<path id="Vector_5" d="M3.34233 12.4681C3.53084 12.4681 3.68366 12.3114 3.68366 12.1181C3.68366 11.9249 3.53084 11.7682 3.34233 11.7682C3.15381 11.7682 3.00098 11.9249 3.00098 12.1181C3.00098 12.3114 3.15381 12.4681 3.34233 12.4681Z" fill="#9B9B9B"/>
<path id="Vector_6" d="M3.9375 13.0111C3.79994 13.0116 3.66351 12.9862 3.5353 12.9364C3.50451 12.9239 3.47993 12.8997 3.46696 12.8692C3.454 12.8386 3.45372 12.8041 3.46617 12.7733C3.47863 12.7425 3.50281 12.7179 3.53339 12.705C3.56397 12.692 3.59843 12.6917 3.62923 12.7042C3.65635 12.7148 4.28347 12.9556 4.61754 12.3351C4.62531 12.3205 4.63586 12.3077 4.64859 12.2973C4.66133 12.2869 4.67599 12.279 4.69175 12.2743C4.7075 12.2695 4.72405 12.2679 4.74042 12.2695C4.7568 12.2712 4.7727 12.276 4.78721 12.2838C4.80172 12.2916 4.81456 12.3021 4.82499 12.3149C4.83541 12.3276 4.84322 12.3423 4.84798 12.358C4.85274 12.3738 4.85436 12.3903 4.85273 12.4067C4.8511 12.4231 4.84625 12.439 4.83847 12.4535C4.60562 12.8881 4.24246 13.0111 3.9375 13.0111Z" fill="#9B9B9B"/>
</g>
</g>
</svg>
