<svg xmlns="http://www.w3.org/2000/svg" width="38" height="16" viewBox="0 0 38 16" fill="none">
  <rect width="37.0683" height="16.0002" rx="1.11164" fill="#666666"/>
  <path d="M19.946 7.50648C19.5159 7.50648 19.1206 7.40657 18.7601 7.20674C18.4039 7.00692 18.1194 6.72891 17.9065 6.37271C17.698 6.01216 17.5938 5.60817 17.5938 5.16075C17.5938 4.71332 17.698 4.31151 17.9065 3.9553C18.1194 3.5991 18.4039 3.32109 18.7601 3.12127C19.1206 2.92144 19.5159 2.82153 19.946 2.82153C20.376 2.82153 20.7692 2.92144 21.1254 3.12127C21.4859 3.32109 21.7683 3.5991 21.9724 3.9553C22.181 4.31151 22.2852 4.71332 22.2852 5.16075C22.2852 5.60817 22.181 6.01216 21.9724 6.37271C21.7639 6.72891 21.4816 7.00692 21.1254 7.20674C20.7692 7.40657 20.376 7.50648 19.946 7.50648ZM19.946 6.48999C20.3109 6.48999 20.6019 6.36836 20.8191 6.1251C21.0407 5.88184 21.1514 5.56039 21.1514 5.16075C21.1514 4.75676 21.0407 4.43531 20.8191 4.19639C20.6019 3.95313 20.3109 3.8315 19.946 3.8315C19.5768 3.8315 19.2814 3.95096 19.0598 4.18988C18.8426 4.42879 18.734 4.75242 18.734 5.16075C18.734 5.56473 18.8426 5.88836 19.0598 6.13162C19.2814 6.37054 19.5768 6.48999 19.946 6.48999Z" fill="#121212"/>
  <path d="M16.9809 2.88672V7.46089H15.8667V4.71769L14.8437 7.46089H13.9445L12.915 4.71118V7.46089H11.8008V2.88672H13.117L14.4006 6.05345L15.6712 2.88672H16.9809Z" fill="#121212"/>
  <path d="M8.84248 7.50648C8.41243 7.50648 8.01713 7.40657 7.65658 7.20674C7.30038 7.00692 7.01585 6.72891 6.803 6.37271C6.59449 6.01216 6.49023 5.60817 6.49023 5.16075C6.49023 4.71332 6.59449 4.31151 6.803 3.9553C7.01585 3.5991 7.30038 3.32109 7.65658 3.12127C8.01713 2.92144 8.41243 2.82153 8.84248 2.82153C9.27253 2.82153 9.66566 2.92144 10.0219 3.12127C10.3824 3.32109 10.6648 3.5991 10.8689 3.9553C11.0774 4.31151 11.1817 4.71332 11.1817 5.16075C11.1817 5.60817 11.0774 6.01216 10.8689 6.37271C10.6604 6.72891 10.3781 7.00692 10.0219 7.20674C9.66566 7.40657 9.27253 7.50648 8.84248 7.50648ZM8.84248 6.48999C9.20737 6.48999 9.49842 6.36836 9.71561 6.1251C9.93715 5.88184 10.0479 5.56039 10.0479 5.16075C10.0479 4.75676 9.93715 4.43531 9.71561 4.19639C9.49842 3.95313 9.20737 3.8315 8.84248 3.8315C8.47324 3.8315 8.17786 3.95096 7.95632 4.18988C7.73912 4.42879 7.63052 4.75242 7.63052 5.16075C7.63052 5.56473 7.73912 5.88836 7.95632 6.13162C8.17786 6.37054 8.47324 6.48999 8.84248 6.48999Z" fill="#121212"/>
  <path d="M6.12017 2.88672V3.7794H4.90821V7.46089H3.79399V3.7794H2.58203V2.88672H6.12017Z" fill="#121212"/>
  <path d="M34.4932 9.06519V9.95787H33.2813V13.6394H32.167V9.95787H30.9551V9.06519H34.4932Z" fill="#121212"/>
  <path d="M26.0508 11.3458C26.0508 10.894 26.1485 10.4922 26.344 10.1403C26.5395 9.78411 26.811 9.50827 27.1585 9.31279C27.5103 9.11297 27.9078 9.01306 28.3509 9.01306C28.8939 9.01306 29.3587 9.15641 29.7453 9.44311C30.1319 9.72981 30.3904 10.1208 30.5207 10.616H29.2957C29.2045 10.4248 29.0742 10.2793 28.9048 10.1794C28.7397 10.0795 28.5507 10.0295 28.3379 10.0295C27.9947 10.0295 27.7167 10.149 27.5038 10.3879C27.291 10.6268 27.1846 10.9461 27.1846 11.3458C27.1846 11.7454 27.291 12.0647 27.5038 12.3036C27.7167 12.5425 27.9947 12.662 28.3379 12.662C28.5507 12.662 28.7397 12.612 28.9048 12.5121C29.0742 12.4122 29.2045 12.2667 29.2957 12.0755H30.5207C30.3904 12.5708 30.1319 12.9617 29.7453 13.2484C29.3587 13.5308 28.8939 13.6719 28.3509 13.6719C27.9078 13.6719 27.5103 13.5742 27.1585 13.3787C26.811 13.1789 26.5395 12.9031 26.344 12.5512C26.1485 12.1993 26.0508 11.7975 26.0508 11.3458Z" fill="#121212"/>
  <path d="M23.8291 9.95787V10.8831H25.3212V11.7432H23.8291V12.7467H25.5167V13.6394H22.7148V9.06519H25.5167V9.95787H23.8291Z" fill="#121212"/>
  <path d="M21.9064 13.6394H20.7922L18.9287 10.818V13.6394H17.8145V9.06519H18.9287L20.7922 11.8996V9.06519H21.9064V13.6394Z" fill="#121212"/>
  <path d="M17.008 13.6394H15.8938L14.0302 10.818V13.6394H12.916V9.06519H14.0302L15.8938 11.8996V9.06519H17.008V13.6394Z" fill="#121212"/>
  <path d="M9.95576 13.6849C9.52571 13.6849 9.13041 13.585 8.76986 13.3852C8.41366 13.1854 8.12913 12.9074 7.91628 12.5512C7.70777 12.1906 7.60352 11.7866 7.60352 11.3392C7.60352 10.8918 7.70777 10.49 7.91628 10.1338C8.12913 9.77757 8.41366 9.49955 8.76986 9.29973C9.13041 9.09991 9.52571 9 9.95576 9C10.3858 9 10.7789 9.09991 11.1351 9.29973C11.4957 9.49955 11.778 9.77757 11.9822 10.1338C12.1907 10.49 12.295 10.8918 12.295 11.3392C12.295 11.7866 12.1907 12.1906 11.9822 12.5512C11.7737 12.9074 11.4913 13.1854 11.1351 13.3852C10.7789 13.585 10.3858 13.6849 9.95576 13.6849ZM9.95576 12.6685C10.3207 12.6685 10.6117 12.5468 10.8289 12.3036C11.0504 12.0603 11.1612 11.7389 11.1612 11.3392C11.1612 10.9352 11.0504 10.6138 10.8289 10.3749C10.6117 10.1316 10.3207 10.01 9.95576 10.01C9.58653 10.01 9.29114 10.1294 9.0696 10.3683C8.8524 10.6073 8.7438 10.9309 8.7438 11.3392C8.7438 11.7432 8.8524 12.0668 9.0696 12.3101C9.29114 12.549 9.58653 12.6685 9.95576 12.6685Z" fill="#121212"/>
  <path d="M2.64062 11.3458C2.64062 10.894 2.73836 10.4922 2.93384 10.1403C3.12932 9.78411 3.40082 9.50827 3.74833 9.31279C4.10019 9.11297 4.49766 9.01306 4.94074 9.01306C5.48374 9.01306 5.94854 9.15641 6.33515 9.44311C6.72176 9.72981 6.98022 10.1208 7.11054 10.616H5.88555C5.79433 10.4248 5.66401 10.2793 5.4946 10.1794C5.32953 10.0795 5.14056 10.0295 4.92771 10.0295C4.58454 10.0295 4.30653 10.149 4.09367 10.3879C3.88082 10.6268 3.77439 10.9461 3.77439 11.3458C3.77439 11.7454 3.88082 12.0647 4.09367 12.3036C4.30653 12.5425 4.58454 12.662 4.92771 12.662C5.14056 12.662 5.32953 12.612 5.4946 12.5121C5.66401 12.4122 5.79433 12.2667 5.88555 12.0755H7.11054C6.98022 12.5708 6.72176 12.9617 6.33515 13.2484C5.94854 13.5308 5.48374 13.6719 4.94074 13.6719C4.49766 13.6719 4.10019 13.5742 3.74833 13.3787C3.40082 13.1789 3.12932 12.9031 2.93384 12.5512C2.73836 12.1993 2.64062 11.7975 2.64062 11.3458Z" fill="#121212"/>
</svg>
